<svg xmlns="http://www.w3.org/2000/svg" data-name="Layer 1" viewBox="0 0 100 125" x="0px" y="0px"><path  d="M31.7215,66.81165s-8.18769,8.85925-7.27716,11.23278c.606,1.5799,6.12738-2.70184,9.14965,2.57288,2.41193,4.20935,7.38678,7.57623,14.37818,9.12738l-5.314-6.27881a23.93821,23.93821,0,0,1-2.2334-3.11371l-.433-.71911a23.93166,23.93166,0,0,1-3.3656-14.11914,7.73965,7.73965,0,0,0,4.01269-5.52l.27692-2.07471c-9.048-.66937-17.18756-2.44708-20.99109-5.88184a1.43948,1.43948,0,0,1,.09778-2.21612c6.26923-4.71466,8.60529-14.71961,9.36585-21.41113C31.1485,12.9845,40.50342,5.18457,49.99963,5c9.49622.18457,18.85114,7.9845,20.61133,23.4101.76056,6.69152,3.09662,16.69647,9.36591,21.41113a1.43951,1.43951,0,0,1,.09771,2.21612c-3.80352,3.43476-11.943,5.21247-20.99108,5.88184l.27691,2.07471a7.73967,7.73967,0,0,0,4.0127,5.52,23.93206,23.93206,0,0,1-3.36554,14.11914l-.43311.71911a23.93632,23.93632,0,0,1-2.2334,3.11371l-5.314,6.27881c6.99139-1.55115,11.96625-4.918,14.37817-9.12738,3.02228-5.27472,8.54364-.993,9.14972-2.57288.91046-2.37353-7.27722-11.23278-7.27722-11.23278,4.79041,1.34973,11.0343,3.49115,15.15466,5.10083,4.62037,1.80987,8.25068,4.88958,9.17072,8.62915.62006,2.49975,2.13019,8.199,2.39026,11.64862C95.1134,93.72009,93.49329,95,91.44312,95H8.55621C6.506,95,4.88593,93.72009,5.00592,92.19025c.26-3.44959,1.77014-9.14887,2.3902-11.64862.92-3.73957,4.55035-6.81928,9.17077-8.62915C20.68719,70.3028,26.93109,68.16138,31.7215,66.81165Z"/></svg>